<?xml version="1.0" encoding="UTF-8"?>
<!DOCTYPE svg PUBLIC "-//W3C//DTD SVG 1.1//EN" "http://www.w3.org/Graphics/SVG/1.1/DTD/svg11.dtd">
<svg xmlns="http://www.w3.org/2000/svg" version="1.1" width="512px" height="512px" style="shape-rendering:geometricPrecision; text-rendering:geometricPrecision; image-rendering:optimizeQuality; fill-rule:evenodd; clip-rule:evenodd" xmlns:xlink="http://www.w3.org/1999/xlink">
<g><path style="opacity:0.961" fill="#bbbbbb" d="M 455.5,-0.5 C 457.167,-0.5 458.833,-0.5 460.5,-0.5C 463.33,0.51027 465.83,2.17694 468,4.5C 471.404,14.2144 474.904,23.881 478.5,33.5C 487.934,36.3668 497.267,39.5335 506.5,43C 508.362,44.3657 510.028,45.8657 511.5,47.5C 511.5,50.8333 511.5,54.1667 511.5,57.5C 509.628,60.5287 506.961,62.6954 503.5,64C 495.228,66.8684 486.895,69.535 478.5,72C 474.611,81.665 471.111,91.4984 468,101.5C 462.026,107.786 455.693,108.119 449,102.5C 445.545,92.1277 441.712,81.961 437.5,72C 428.167,68.6667 418.833,65.3333 409.5,62C 403.214,56.0264 402.881,49.6931 408.5,43C 418.747,39.6956 428.914,36.1956 439,32.5C 442.062,21.9722 445.895,11.8055 450.5,2C 452.315,1.24316 453.981,0.409824 455.5,-0.5 Z"/></g>
<g><path style="opacity:0.948" fill="#bbbbbb" d="M -0.5,242.5 C -0.5,236.833 -0.5,231.167 -0.5,225.5C 2.56714,214.907 9.2338,207.407 19.5,203C 61.4889,190.725 103.489,178.558 145.5,166.5C 157.584,122.497 170.75,78.83 185,35.5C 198.187,19.5817 214.02,16.4151 232.5,26C 236.752,29.5813 240.252,33.748 243,38.5C 255.656,80.7935 268.156,123.127 280.5,165.5C 321.966,178.453 363.633,190.953 405.5,203C 423.464,211.767 429.964,225.934 425,245.5C 421.993,252.841 417.16,258.674 410.5,263C 367.431,276.745 324.098,289.579 280.5,301.5C 268.644,343.237 256.477,384.904 244,426.5C 236.345,443.746 223.178,450.579 204.5,447C 193.68,444.339 186.18,437.839 182,427.5C 169.318,385.623 157.151,343.623 145.5,301.5C 103.723,289.805 62.0564,277.638 20.5,265C 10.1342,260.473 3.1342,252.973 -0.5,242.5 Z M 210.5,42.5 C 216.327,41.9371 220.494,44.2704 223,49.5C 235.667,92.8333 248.333,136.167 261,179.5C 262.122,181.624 263.622,183.457 265.5,185C 310.155,198.331 354.822,211.664 399.5,225C 406.529,232.177 405.863,238.511 397.5,244C 353.085,257.139 308.752,270.472 264.5,284C 261.721,287.315 259.887,291.149 259,295.5C 247.155,336.545 235.155,377.545 223,418.5C 218.733,425.876 212.899,427.376 205.5,423C 204.206,420.913 203.039,418.746 202,416.5C 189.461,372.674 176.461,329.007 163,285.5C 159.217,282.902 155.05,281.068 150.5,280C 109.833,268 69.1667,256 28.5,244C 21.1245,239.733 19.6245,233.899 24,226.5C 25.4194,225.54 26.9194,224.707 28.5,224C 71.7427,211.023 115.076,198.356 158.5,186C 160.624,184.878 162.457,183.378 164,181.5C 177.333,136.833 190.667,92.1667 204,47.5C 205.965,45.4497 208.132,43.783 210.5,42.5 Z"/></g>
<g><path style="opacity:0.95" fill="#bbbbbb" d="M 511.5,410.5 C 511.5,413.833 511.5,417.167 511.5,420.5C 509.314,423.611 506.314,425.778 502.5,427C 484.833,434 467.167,441 449.5,448C 441.669,465.17 434.503,482.67 428,500.5C 426.452,504.965 423.952,508.632 420.5,511.5C 417.167,511.5 413.833,511.5 410.5,511.5C 407.389,509.314 405.222,506.314 404,502.5C 397,484.833 390,467.167 383,449.5C 363.717,440.623 344.217,432.123 324.5,424C 319.255,419.483 318.088,413.983 321,407.5C 322.731,405.383 324.898,403.883 327.5,403C 345.99,396.393 364.323,389.393 382.5,382C 390.52,362.125 398.686,342.291 407,322.5C 412.667,318.5 418.333,318.5 424,322.5C 432.389,342.77 440.889,362.936 449.5,383C 469.28,390.723 488.947,398.723 508.5,407C 509.636,408.145 510.636,409.312 511.5,410.5 Z M 414.5,361.5 C 420.158,371.914 424.991,382.914 429,394.5C 429.792,396.587 430.959,398.421 432.5,400C 444.842,405.172 457.175,410.338 469.5,415.5C 457.175,420.662 444.842,425.828 432.5,431C 426.442,443.62 420.775,456.453 415.5,469.5C 410.338,457.175 405.172,444.842 400,432.5C 387.51,426.007 374.677,420.173 361.5,415C 372.308,410.284 383.308,405.951 394.5,402C 396.587,401.208 398.421,400.041 400,398.5C 405.407,386.358 410.241,374.025 414.5,361.5 Z"/></g>
</svg>
